<?xml version="1.0" encoding="utf-8"?>
<!-- Generator: Adobe Illustrator 16.0.0, SVG Export Plug-In . SVG Version: 6.00 Build 0)  -->
<!DOCTYPE svg PUBLIC "-//W3C//DTD SVG 1.1//EN" "http://www.w3.org/Graphics/SVG/1.1/DTD/svg11.dtd">
<svg version="1.1" id="Layer_1" xmlns="http://www.w3.org/2000/svg" xmlns:xlink="http://www.w3.org/1999/xlink" x="0px" y="0px"
	 width="138.5px" height="138.5px" viewBox="0 0 138.5 138.5" enable-background="new 0 0 138.5 138.5" xml:space="preserve">
<circle fill="none" stroke="#000000" stroke-width="8" stroke-miterlimit="10" cx="69.25" cy="69.25" r="65.25"/>
<polyline points="64.5,74.25 75,98 97,41 "/>
<polygon fill="none" stroke="#000000" stroke-width="4" stroke-miterlimit="10" points="75,98 97,41 40,63.5 64.5,74.25 "/>
<path d="M69.25,10.25c-32.533,0-59,26.467-59,59c0,32.532,26.467,59,59,59c32.532,0,59-26.468,59-59
	C128.25,36.717,101.782,10.25,69.25,10.25z M74.338,121.99l-1.843-3.353l-3.704-6.742l-3.704,6.742l-1.788,3.255
	c-24.833-2.791-44.509-22.797-46.797-47.777l2.623-1.441l6.742-3.704l-6.742-3.704l-2.588-1.422
	c2.528-24.827,22.262-44.617,47.055-47.263l1.496,2.723l3.704,6.742l3.704-6.742l1.544-2.81
	c25.041,2.257,45.105,21.985,47.866,46.879l-3.447,1.895l-6.742,3.704l6.742,3.704l3.494,1.919
	C119.43,99.642,99.419,119.589,74.338,121.99z"/>
</svg>
