<?xml version="1.0" encoding="utf-8"?>
<!-- Generator: Adobe Illustrator 16.0.0, SVG Export Plug-In . SVG Version: 6.00 Build 0)  -->
<!DOCTYPE svg PUBLIC "-//W3C//DTD SVG 1.1//EN" "http://www.w3.org/Graphics/SVG/1.1/DTD/svg11.dtd">
<svg version="1.1" id="Layer_1" xmlns="http://www.w3.org/2000/svg" xmlns:xlink="http://www.w3.org/1999/xlink" x="0px" y="0px"
	 width="821.553px" height="138.5px" viewBox="0 0 821.553 138.5" enable-background="new 0 0 821.553 138.5" xml:space="preserve">
<circle fill="none" stroke="#000000" stroke-width="8" stroke-miterlimit="10" cx="69.25" cy="69.25" r="65.25"/>
<polyline points="64.668,74.073 74.797,96.984 96.021,41.998 "/>
<polygon fill="none" stroke="#000000" stroke-width="3.8587" stroke-miterlimit="10" points="74.797,96.984 96.021,41.998 
	41.033,63.703 64.668,74.073 "/>
<path d="M69.25,12.333c-31.384,0-56.917,25.533-56.917,56.917s25.533,56.916,56.917,56.916s56.916-25.532,56.916-56.916
	S100.634,12.333,69.25,12.333z M74.158,120.128l-1.777-3.234l-3.573-6.504l-3.573,6.504l-1.726,3.14
	c-23.957-2.692-42.938-21.991-45.144-46.09l2.53-1.391l6.504-3.573l-6.504-3.573l-2.497-1.372
	c2.439-23.951,21.476-43.041,45.394-45.594l1.442,2.626l3.574,6.504l3.573-6.504l1.489-2.711
	c24.156,2.177,43.513,21.208,46.176,45.224l-3.325,1.828l-6.505,3.573l6.505,3.573l3.37,1.852
	C117.657,98.568,98.354,117.812,74.158,120.128z"/>
<g>
	<path d="M457.153,39.867c-3.539-1.464-7.474-2.499-11.803-3.111c-4.332-0.609-8.998-0.915-13.999-0.915
		c-9.639,0-20.069,0.915-31.291,2.745c-11.226,1.83-22.846,3.6-34.86,5.307c-12.018,1.71-24.127,2.991-36.324,3.843
		c-12.2,0.855-24.035,0.246-35.501-1.83c-4.025,6.833-8.847,14.213-14.456,22.142c-4.881,6.833-10.888,14.64-18.024,23.423
		s-15.526,17.934-25.162,27.449c-1.83,1.95-3.6,3.751-5.307,5.398c-1.71,1.646-3.905,2.47-6.588,2.47
		c-1.71,0-3.782-0.854-6.222-2.562c-2.441-1.71-4.089-4.332-4.94-7.869c-0.732-2.562-1.038-5.398-0.915-8.509
		c0.12-3.111,0.486-6.25,1.098-9.424c-1.221,1.71-2.318,3.11-3.294,4.208c-0.978,1.099-1.952,2.104-2.928,3.02
		c-0.978,0.915-2.076,1.922-3.294,3.02c-1.221,1.098-2.685,2.502-4.392,4.209c-1.71,1.83-3.417,3.597-5.124,5.307
		c-1.71,1.707-3.966,2.562-6.771,2.562c-1.71,0-3.751-0.855-6.13-2.562c-2.379-1.71-4.058-4.332-5.032-7.868
		c-0.855-3.049-1.404-6.159-1.647-9.333c-0.246-3.171-0.274-6.25-0.092-9.241c0.184-2.988,0.55-5.824,1.099-8.509
		c0.549-2.683,1.189-5.061,1.921-7.137c1.464-3.903,3.14-8.08,5.032-12.535c1.891-4.452,3.66-8.629,5.307-12.535
		c1.647-3.903,3.02-7.257,4.118-10.064c1.098-2.805,1.523-4.575,1.28-5.307c0-0.853-0.365-1.281-1.098-1.281
		c-1.953,0-5.187,2.716-9.698,8.143c-4.516,5.43-9.579,14.428-15.188,26.992c-1.099,1.953-1.922,3.691-2.471,5.215
		c-0.549,1.527-1.007,3.142-1.372,4.849c-0.366,1.71-0.366,3.294,0,4.758c0.242,0.978,0.669,1.71,1.28,2.196h1.099
		c0.608,0,1.157,0.062,1.646,0.183c0.486,0.123,0.792,0.429,0.915,0.915c0.243,0.978-0.062,1.861-0.915,2.653
		c-0.854,0.795-1.953,1.189-3.294,1.189c-1.221,0-2.471-0.395-3.751-1.189c-1.281-0.792-2.502-1.767-3.66-2.928
		c-1.161-1.158-2.167-2.499-3.02-4.026c-0.854-1.523-1.464-3.019-1.83-4.483c-0.611-2.562-0.58-5.733,0.092-9.516
		c0.669-3.78,2.225-8.721,4.666-14.822V54.14c2.196-5.244,5.001-9.667,8.418-13.267c3.414-3.597,6.922-6.464,10.522-8.601
		c3.597-2.133,7.104-3.66,10.521-4.575c3.414-0.915,6.282-1.373,8.601-1.373c0.609,0,1.158,0.063,1.647,0.183
		c0.486,0.123,0.975,0.183,1.464,0.183c2.315,0.855,4.483,2.044,6.496,3.568c2.013,1.527,3.386,3.568,4.117,6.13
		c0.243,1.098,0.335,2.41,0.274,3.934c-0.062,1.527-0.397,3.083-1.006,4.667c-1.71,4.026-3.632,8.784-5.765,14.273
		c-2.136,5.49-4.209,11.042-6.222,16.652c-2.013,5.613-3.814,10.951-5.398,16.011c-1.587,5.064-2.625,9.182-3.11,12.353
		c-0.246,0.854-0.366,1.77-0.366,2.745c-0.246,1.952-0.063,3.782,0.549,5.489c0,0.246,0.06,0.486,0.183,0.732
		c0.12,0.243,0.243,0.486,0.366,0.731c2.316-1.584,5.152-4.392,8.51-8.417c3.354-4.026,6.953-8.784,10.796-14.273
		c3.843-5.49,7.715-11.466,11.62-17.934c3.903-6.465,7.503-12.993,10.797-19.58c-0.123,0.123-0.063-0.092,0.183-0.641
		c0.243-0.549,0.486-1.189,0.732-1.921c0.243-0.732,0.457-1.493,0.641-2.288c0.183-0.792,0.211-1.432,0.091-1.921
		c0.243-1.218,0.366-1.95,0.366-2.196c0-0.243-0.062-0.486-0.183-0.732c-0.123-0.366-0.274-0.641-0.458-0.824
		c-0.183-0.183-0.337-0.577-0.457-1.189c-0.246-0.12-0.397-0.609-0.458-1.464c-0.062-0.852,0.578-1.401,1.922-1.647
		c0.852,0,1.95,0.183,3.294,0.549c1.341,0.366,2.682,0.946,4.025,1.738c1.341,0.795,2.591,1.83,3.752,3.111
		c1.157,1.281,1.981,2.836,2.47,4.667c0.366,1.221,0.549,2.379,0.549,3.477c0,1.098-0.123,2.136-0.365,3.111
		c-3.174,6.588-6.222,13.116-9.15,19.581c-2.928,6.468-5.43,12.475-7.502,18.024c-2.076,5.553-3.632,10.554-4.667,15.006
		c-1.037,4.454-1.189,7.96-0.457,10.521c0,0.486,0.183,0.915,0.549,1.281c1.584-1.098,3.688-3.143,6.313-6.13
		c2.622-2.988,5.55-6.557,8.783-10.705c3.231-4.146,6.648-8.753,10.248-13.816c3.597-5.061,7.137-10.216,10.613-15.463
		c3.477-5.244,6.771-10.459,9.882-15.646c3.11-5.184,5.764-9.973,7.96-14.365c0.853-1.584,1.524-2.957,2.013-4.117
		c0.486-1.158,0.609-2.288,0.366-3.385c-0.246-0.609-0.731-1.584-1.464-2.928c-0.732-1.341-1.281-2.682-1.646-4.026
		c-0.612-2.073-0.55-3.72,0.183-4.94c0.731-1.218,1.646-2.133,2.745-2.745c1.098-0.609,2.256-1.006,3.477-1.189
		c1.218-0.183,2.073-0.274,2.562-0.274c0.366,0,1.127,0.183,2.288,0.549c1.157,0.366,2.379,0.978,3.659,1.83
		c1.281,0.855,2.471,1.893,3.568,3.111c1.099,1.221,1.891,2.745,2.379,4.575c0.486,1.71,0.609,3.294,0.366,4.758
		c-0.246,1.464-0.672,2.745-1.281,3.843c2.196,1.464,5.977,2.471,11.346,3.02c5.367,0.549,11.62,0.641,18.757,0.274
		c7.137-0.366,14.791-1.126,22.966-2.287c8.172-1.158,16.104-2.654,23.789-4.483c11.466-2.682,21.959-4.667,31.475-5.947
		c9.516-1.281,18.116-1.921,25.802-1.921c10.125,0,17.993,0.978,23.606,2.928c5.609,1.953,8.903,4.698,9.882,8.235
		c0.242,0.732,0.274,1.372,0.091,1.921c-0.183,0.549-0.823,0.823-1.921,0.823c-0.612,0-1.373-0.12-2.288-0.366
		C459.808,40.905,458.618,40.479,457.153,39.867z"/>
	<path d="M311.49,91.471c-3.417,5.247-6.771,9.762-10.064,13.541c-1.465,1.587-2.96,3.083-4.483,4.483
		c-1.527,1.404-3.083,2.533-4.667,3.386c-1.587,0.853-3.11,1.372-4.574,1.556c-1.464,0.183-2.868-0.154-4.209-1.007
		c-2.562-1.83-4.483-3.935-5.765-6.313c-1.28-2.379-2.041-4.909-2.287-7.594c-0.243-2.682-0.028-5.367,0.641-8.052
		c0.672-2.682,1.678-5.184,3.02-7.503c1.221-2.195,3.082-4.603,5.581-7.228c2.499-2.622,5.335-5.032,8.509-7.228l1.099-0.732
		c0.242-0.243,0.485-0.395,0.731-0.458c0.243-0.06,0.549-0.212,0.915-0.458c3.171-1.95,7.196-3.66,12.077-5.124
		c4.878-1.464,10.065-1.707,15.555-0.732c1.464,0.366,2.805,0.915,4.026,1.647c0.975,0.612,1.858,1.527,2.653,2.745
		c0.792,1.221,1.249,2.808,1.372,4.758c-0.123,0.855-0.215,1.464-0.274,1.83c-0.063,0.366-0.215,0.795-0.458,1.281
		c-0.365,0.612-0.731,0.978-1.098,1.098v0.183c-0.489,0.246-0.854,0.366-1.098,0.366c-0.366,0-0.672-0.06-0.915-0.183
		c-0.612-0.243-0.855-0.792-0.732-1.647v-1.098c-0.245-1.464-1.403-2.316-3.477-2.562c-1.098-0.243-3.051,0-5.855,0.732
		c-2.808,0.732-6.162,2.319-10.064,4.758c-0.732,0.366-1.436,0.795-2.104,1.281c-0.672,0.489-1.373,0.978-2.104,1.464
		c-0.246,0.246-0.429,0.397-0.549,0.458c-0.123,0.062-0.307,0.214-0.55,0.457h-0.183c-1.71,1.344-3.54,2.991-5.489,4.94
		c-1.83,2.076-3.691,4.363-5.582,6.862c-1.893,2.502-3.448,4.881-4.666,7.137c-1.221,2.259-1.953,4.24-2.196,5.947
		c-0.242,1.71,0.366,2.808,1.83,3.294c1.219,0.366,3.202-0.577,5.947-2.836c2.745-2.256,5.61-4.97,8.601-8.144
		c2.988-3.171,5.856-6.404,8.601-9.698c2.745-3.294,4.787-5.793,6.131-7.503c0.12,0,0.183-0.029,0.183-0.092
		c0-0.06,0.061-0.092,0.184-0.092c1.098-1.34,2.379-2.53,3.843-3.568c1.464-1.035,3.048-1.25,4.758-0.64
		c3.171,0.978,5.184,2.379,6.038,4.208c0.853,1.83,0.792,3.601-0.183,5.308v0.183v0.184c-0.123,0-0.183,0.062-0.183,0.183
		c0,0.123-0.032,0.183-0.092,0.183c-0.063,0-0.092,0.063-0.092,0.184l-0.183,0.183v0.183l-0.184,0.184
		c-0.245,0.246-0.429,0.549-0.549,0.915c-0.123,0.366-0.306,0.672-0.549,0.915v0.183c-0.123,0-0.183,0.063-0.183,0.183v0.184
		c-0.123,0-0.184,0.062-0.184,0.183l-0.183,0.184v0.183c-0.123,0-0.183,0.062-0.183,0.183c-1.099,1.83-2.137,3.601-3.111,5.308
		c-0.978,1.709-1.738,3.325-2.287,4.849c-0.549,1.527-0.824,2.837-0.824,3.935s0.366,1.893,1.099,2.379
		c0.608,0.366,1.4,0.429,2.379,0.183c0.731-0.242,1.675-0.731,2.836-1.464c1.158-0.731,2.471-2.013,3.935-3.843
		c1.464-1.707,2.865-3.354,4.209-4.94c1.341-1.584,2.562-3.048,3.659-4.392c1.342-1.464,2.562-2.865,3.66-4.209
		c0.853-1.099,1.647-1.891,2.379-2.379c0.609-0.366,1.158-0.395,1.647-0.092c0.485,0.306,0.731,1.312,0.731,3.02
		c0,0.612-0.062,1.221-0.183,1.83c-0.246,0.611-0.521,1.312-0.823,2.104c-0.307,0.795-0.887,1.678-1.739,2.653
		c-0.978,1.098-2.195,2.47-3.659,4.117c-1.464,1.646-2.928,3.266-4.393,4.85c-1.464,1.587-2.744,3.019-3.843,4.3
		c-1.098,1.281-1.829,2.104-2.195,2.471c-1.83,1.83-3.874,2.836-6.131,3.02c-2.259,0.183-4.423-0.395-6.496-1.738
		c-1.098-0.732-2.259-1.676-3.477-2.837c-1.221-1.158-2.259-2.591-3.111-4.3c-0.854-1.707-1.372-3.598-1.555-5.673
		C310.117,96.352,310.512,94.032,311.49,91.471z"/>
	<path d="M403.535,87.262c0.975-1.098,1.83-1.89,2.562-2.379c0.609-0.366,1.189-0.395,1.738-0.092
		c0.55,0.307,0.701,1.312,0.458,3.02c0,0.489-0.123,1.038-0.366,1.647c-0.246,0.611-0.58,1.344-1.007,2.195
		c-0.429,0.855-1.129,1.771-2.104,2.745c-0.979,1.098-2.259,2.471-3.844,4.117c-1.586,1.647-3.173,3.266-4.757,4.85
		c-1.587,1.587-3.02,3.02-4.301,4.301c-1.281,1.28-2.104,2.104-2.471,2.47c-2.075,1.83-4.209,2.805-6.404,2.928
		c-2.196,0.12-4.271-0.485-6.222-1.829c-1.71-1.099-3.357-2.929-4.941-5.49c-1.587-2.562-2.013-5.793-1.28-9.698
		c0.485-1.342,1.066-2.957,1.738-4.85c0.669-1.89,1.556-3.688,2.653-5.398c0.852-1.341,1.738-2.713,2.653-4.117
		c0.915-1.401,1.858-2.773,2.836-4.117c0.243-0.366,0.55-0.792,0.915-1.281c0.366-0.486,0.669-1.006,0.915-1.555
		c0.243-0.549,0.366-1.007,0.366-1.373c0-0.366-0.306-0.609-0.915-0.732c-0.731-0.12-2.318,0.732-4.758,2.562
		c-2.441,1.83-5.215,4.058-8.326,6.679c-3.11,2.625-6.284,5.43-9.516,8.418c-3.233,2.991-5.947,5.581-8.143,7.777
		c-0.366,0.854-0.732,1.893-1.099,3.11c-0.366,1.222-0.611,2.319-0.731,3.294c0,1.464,0.243,2.502,0.731,3.111h1.281
		c1.218,0.246,1.584,1.038,1.098,2.379c0,0.123-0.062,0.246-0.183,0.366c0,0.123-0.063,0.183-0.184,0.183
		c0,0.366-0.183,0.612-0.549,0.732c-0.123,0.122-0.488,0.365-1.098,0.731c-0.732,0.612-1.71,0.975-2.928,1.098
		c-1.584,0.12-2.928-0.062-4.026-0.549h-0.183c-0.12,0-0.243-0.06-0.366-0.183c-0.975-0.366-1.464-0.669-1.464-0.915
		c-2.562-1.83-3.72-4.512-3.477-8.052c0-1.584,0.306-3.414,0.915-5.49c0.123-0.242,0.183-0.485,0.183-0.731
		c0.123,0,0.184-0.12,0.184-0.366c1.098-3.66,2.744-7.471,4.94-11.437c2.196-3.963,4.452-7.715,6.771-11.254
		c0.609-0.975,1.158-1.95,1.647-2.928c0.485-0.975,0.852-1.83,1.098-2.562h-0.183h0.183V68.23V66.95v-0.549
		c-0.123-0.243-0.183-0.609-0.183-1.098c0-0.609,0.183-1.158,0.549-1.647c0.243-0.366,0.669-0.701,1.28-1.006
		c0.609-0.303,1.524-0.458,2.745-0.458c0.243,0,0.458,0.031,0.641,0.091c0.183,0.063,0.395,0.092,0.641,0.092
		c1.098,0.366,2.225,0.946,3.385,1.738c1.158,0.795,2.196,1.738,3.111,2.836s1.524,2.319,1.83,3.66
		c0.303,1.344,0.151,2.745-0.458,4.209c-0.245,0.366-0.457,0.732-0.64,1.098c-0.184,0.366-0.397,0.795-0.641,1.281
		c-0.246,0.366-0.521,0.764-0.824,1.189c-0.306,0.429-0.703,0.946-1.189,1.556V79.76c-0.488,0.731-0.854,1.221-1.098,1.463
		c2.562-2.315,5.216-4.574,7.96-6.77c2.745-2.196,5.398-4.178,7.961-5.947c2.562-1.767,4.969-3.14,7.228-4.118
		c2.256-0.975,4.178-1.401,5.765-1.281h0.183c2.683,0.366,4.544,1.252,5.582,2.653c1.034,1.404,1.492,3.111,1.372,5.124
		c-0.123,2.013-0.795,4.24-2.013,6.679c-1.222,2.441-2.745,4.881-4.575,7.319c-0.246,0.246-0.429,0.489-0.549,0.732
		c-0.123,0.246-0.306,0.488-0.549,0.731c-0.246,0.366-0.489,0.704-0.732,1.007c-0.246,0.306-0.488,0.58-0.731,0.823l-2.562,3.477
		v0.184c-2.562,3.54-4.515,6.496-5.855,8.875c-1.344,2.379-1.281,4.058,0.183,5.032c0.486,0.366,1.219,0.429,2.196,0.183
		c0.732-0.242,1.707-0.731,2.928-1.464c1.218-0.731,2.682-1.95,4.392-3.659c1.707-1.707,3.294-3.386,4.758-5.032
		c1.464-1.647,2.806-3.14,4.026-4.483C401.033,89.824,402.314,88.482,403.535,87.262z"/>
	<path d="M458.247,109.77c-1.71,1.953-3.997,2.991-6.862,3.111c-2.868,0.12-5.398-0.486-7.594-1.83
		c-1.099-0.608-2.288-1.523-3.568-2.745c-1.281-1.218-2.411-2.653-3.386-4.3c-0.978-1.647-1.646-3.537-2.013-5.673
		c-0.366-2.133-0.123-4.421,0.731-6.862c-2.928,5.37-5.918,9.882-8.967,13.541c-1.344,1.587-2.716,3.083-4.117,4.483
		c-1.403,1.404-2.867,2.533-4.392,3.386c-1.526,0.853-3.02,1.341-4.483,1.464c-1.464,0.12-2.928-0.246-4.392-1.098
		c-2.805-1.707-4.909-3.78-6.313-6.222c-1.401-2.439-2.348-4.97-2.836-7.595c-0.486-2.622-0.486-5.307,0-8.052
		c0.488-2.744,1.28-5.275,2.379-7.594c0.611-1.341,1.495-2.865,2.653-4.574c1.16-1.708,2.41-3.415,3.751-5.125
		c0-0.12,0.061-0.183,0.184-0.183l0.365-0.183c0-0.12,0.061-0.243,0.184-0.366c0.608-0.732,1.4-1.524,2.379-2.379
		c1.218-1.098,2.682-2.256,4.392-3.477c1.707-1.218,3.568-2.287,5.581-3.202s4.209-1.556,6.588-1.921
		c2.379-0.366,4.909-0.366,7.594,0c0.243,0.123,0.609,0.183,1.099,0.183v0.183c0.608,0.123,1.4,0.429,2.379,0.915
		c1.098,0.732,2.104,1.587,3.02,2.562c0.915,0.978,1.066,2.625,0.457,4.941c-0.366,1.464-1.038,2.562-2.013,3.294
		c-0.246,0.246-0.458,0.397-0.641,0.457c-0.183,0.063-0.338,0.155-0.457,0.275h-0.184c-0.246,0.123-0.611,0.183-1.098,0.183
		c-0.366-0.243-0.672-0.486-0.915-0.732c-0.246-0.243-0.429-0.486-0.549-0.732c-0.123-0.243-0.063-0.609,0.183-1.098h0.184
		l-0.184-0.183h0.184c0.119-0.243,0.242-0.518,0.365-0.824c0.12-0.303,0.061-0.577-0.183-0.823
		c-0.246-0.243-0.946-0.091-2.104,0.458c-1.161,0.549-2.562,1.404-4.209,2.562c-1.646,1.161-3.448,2.593-5.398,4.3
		c-1.952,1.709-3.843,3.6-5.673,5.672c0,0.123-0.062,0.246-0.183,0.366c-1.71,2.076-3.417,4.363-5.124,6.862
		c-1.71,2.502-3.082,4.912-4.117,7.229c-1.038,2.318-1.587,4.331-1.646,6.038c-0.063,1.71,0.64,2.745,2.104,3.111
		c1.098,0.366,2.713-0.366,4.849-2.196c2.133-1.83,4.421-4.086,6.862-6.771c2.439-2.682,4.85-5.519,7.229-8.509
		c2.379-2.988,4.483-5.519,6.313-7.595v-0.183c0.242-0.486,0.608-0.976,1.098-1.464c0.366-0.486,0.823-1.066,1.372-1.738
		c0.549-0.669,1.25-1.493,2.104-2.471c2.683-3.66,5.673-8.172,8.967-13.542c3.294-5.367,6.8-10.522,10.522-15.463
		c3.72-4.941,7.502-9.15,11.345-12.626c3.844-3.477,7.654-5.215,11.438-5.215c1.098,0.123,2.133,0.489,3.111,1.098
		c0.731,0.612,1.432,1.464,2.104,2.562c0.67,1.098,0.884,2.625,0.641,4.575c-0.245,2.319-1.646,5.461-4.209,9.424
		c-2.562,3.966-5.795,8.143-9.698,12.535c-2.196,2.562-4.515,5.003-6.954,7.32c-2.441,2.319-5.123,4.575-8.051,6.771
		c-2.562,3.66-4.516,6.651-5.856,8.966c-1.344,2.319-2.379,4.209-3.11,5.673v0.184l-0.184,0.183c-0.978,1.83-1.893,3.6-2.744,5.307
		c-0.855,1.71-1.496,3.325-1.922,4.85c-0.429,1.526-0.58,2.836-0.457,3.935c0.12,1.098,0.549,1.893,1.28,2.379
		c0.976,0.365,2.073,0.429,3.294,0.183c0.976-0.243,2.104-0.732,3.386-1.464c1.281-0.732,2.59-2.013,3.935-3.843
		c1.341-1.707,2.621-3.354,3.843-4.941c1.218-1.584,2.315-3.048,3.294-4.392c1.218-1.464,2.315-2.864,3.293-4.209
		c0.853-1.098,1.585-1.89,2.196-2.379c0.609-0.365,1.127-0.365,1.556,0c0.426,0.366,0.761,1.404,1.006,3.111
		c0.12,0.489,0.12,1.038,0,1.646c-0.245,1.345-1.037,2.929-2.379,4.758c-0.854,1.099-1.921,2.502-3.202,4.209
		c-1.28,1.71-2.593,3.357-3.935,4.941c-1.344,1.587-2.533,2.99-3.567,4.208C459.131,108.612,458.49,109.404,458.247,109.77z
		 M484.232,35.109c-0.366-0.12-0.855,0.154-1.465,0.824c-0.611,0.672-1.312,1.618-2.104,2.836c-0.795,1.221-1.679,2.593-2.654,4.117
		c-0.978,1.527-1.893,3.082-2.744,4.666c-2.196,3.783-4.575,8.115-7.137,12.993c5.855-6.222,9.973-11.008,12.352-14.365
		c2.379-3.354,3.872-5.884,4.483-7.594C485.573,36.636,485.33,35.475,484.232,35.109z"/>
	<path d="M505.092,105.012c-3.906,2.442-7.412,4.332-10.522,5.673c-3.111,1.344-5.919,2.288-8.418,2.837
		c-2.502,0.549-4.697,0.761-6.588,0.641c-1.893-0.123-3.568-0.489-5.032-1.099c-3.294-1.341-5.793-3.659-7.502-6.953
		c-1.465-3.78-1.95-7.44-1.465-10.979c0.489-3.537,1.556-6.862,3.203-9.974c1.646-3.11,3.723-5.976,6.222-8.601
		c2.499-2.622,5.032-4.909,7.594-6.862c2.562-1.95,4.97-3.537,7.229-4.758c2.256-1.218,3.994-2.013,5.215-2.379
		c1.707-0.486,3.323-0.518,4.85-0.092c1.524,0.429,2.773,1.006,3.751,1.738c1.219,0.855,2.316,1.893,3.294,3.111
		c0.366,0.612,0.792,1.281,1.281,2.013c0.853,1.464,1.281,3.051,1.281,4.758v0.183c-0.123,0.246-0.184,0.672-0.184,1.281
		c-0.611,3.294-2.227,6.13-4.849,8.509c-2.625,2.379-5.553,4.332-8.784,5.855c-3.233,1.527-6.436,2.686-9.606,3.478
		c-3.174,0.795-5.673,1.372-7.503,1.738l-1.281,2.744c-0.978,2.809-1.161,4.941-0.549,6.405c0.486,1.344,1.89,2.196,4.209,2.562
		c2.315,0.366,6.158-0.608,11.528-2.928c1.218-0.486,2.499-1.035,3.843-1.646c1.098-0.609,2.348-1.25,3.751-1.922
		c1.401-0.669,2.773-1.372,4.118-2.104l0.731-0.549c0.366-0.243,0.761-0.457,1.189-0.641c0.426-0.183,0.761-0.395,1.007-0.641
		c1.098-0.852,2.133-1.646,3.11-2.379c0.976-0.731,1.95-1.584,2.928-2.562l4.026-4.025c1.098-0.976,2.013-1.647,2.745-2.014
		c0.608-0.243,1.126-0.211,1.555,0.092c0.427,0.306,0.518,1.372,0.275,3.202c0.119,1.344-0.521,2.899-1.922,4.667
		c-1.404,1.77-2.717,3.082-3.935,3.934l-4.758,3.843c-0.123,0-0.246,0.063-0.366,0.184c-0.978,0.731-1.709,1.221-2.195,1.464
		c-0.732,0.489-1.281,0.795-1.647,0.915L505.092,105.012z M502.896,70.427c-0.246-0.12-1.098,0.246-2.562,1.098
		c-1.465,0.855-3.234,2.136-5.308,3.843c-2.075,1.71-4.331,3.844-6.771,6.405c-2.441,2.562-4.697,5.489-6.771,8.783
		c5.489-2.438,9.698-4.94,12.626-7.503c2.929-2.562,4.878-4.512,5.856-5.855c0.975-1.584,1.798-2.988,2.47-4.209
		C503.107,71.771,503.262,70.916,502.896,70.427z"/>
	<path d="M559.438,88.177c1.099-1.098,2.073-1.89,2.928-2.379c0.732-0.366,1.401-0.395,2.014-0.092
		c0.608,0.307,0.792,1.312,0.549,3.02c-0.123,0.489-0.366,1.038-0.732,1.647c-0.246,0.611-0.611,1.344-1.098,2.195
		c-0.489,0.855-1.221,1.771-2.196,2.745c-0.978,1.098-2.259,2.471-3.843,4.117c-1.587,1.647-3.174,3.266-4.758,4.85
		c-1.587,1.587-3.051,3.02-4.392,4.3c-1.344,1.281-2.196,2.104-2.562,2.471c-1.953,1.83-4.058,2.805-6.313,2.928
		c-2.259,0.12-4.363-0.488-6.313-1.83c-1.71-1.098-3.325-2.928-4.85-5.489c-1.526-2.562-1.921-5.793-1.189-9.698
		c0.366-1.342,0.915-2.957,1.647-4.85c0.731-1.89,1.584-3.688,2.562-5.398c0.976-1.341,1.922-2.714,2.837-4.117
		c0.915-1.401,1.858-2.773,2.836-4.118c0-0.243,0.061-0.395,0.184-0.457c0.119-0.06,0.242-0.212,0.365-0.458V77.38
		c0.12-0.12,0.395-0.486,0.824-1.098c0.426-0.609,0.823-1.31,1.189-2.104c0.365-0.792,0.577-1.584,0.64-2.379
		c0.061-0.792-0.214-1.492-0.823-2.104v-0.183c-0.366,0.489-0.731,0.946-1.098,1.373c-0.366,0.429-0.795,0.886-1.281,1.372
		c-0.366,0.489-0.764,0.978-1.189,1.464c-0.429,0.489-0.823,1.038-1.189,1.647c-2.075,2.562-3.814,4.666-5.215,6.313
		c-1.404,1.646-2.533,2.959-3.386,3.935c-1.098,1.221-1.893,2.075-2.379,2.562c-1.95,2.319-3.477,3.356-4.575,3.111
		c-0.485,0-0.852-0.304-1.098-0.915c-0.243-0.12-0.426-0.366-0.549-0.732c-0.243-0.486-0.183-1.098,0.183-1.83
		c0.979-2.072,2.351-4.177,4.118-6.312c1.767-2.133,3.688-4.544,5.764-7.229c0.976-1.098,1.768-1.981,2.379-2.653
		c0.609-0.669,1.341-1.556,2.196-2.654c0.486-0.852,0.641-1.707,0.457-2.562c-0.183-0.852-0.429-1.767-0.731-2.745
		c-0.307-0.975-0.489-1.981-0.549-3.02c-0.063-1.035,0.334-2.224,1.189-3.568c0.852-1.098,1.767-2.073,2.744-2.928
		c1.584-1.218,3.14-1.798,4.667-1.738c1.523,0.063,2.59,0.154,3.202,0.274l0.366,0.183c0.485,0.246,0.792,0.429,0.915,0.549
		c0.975,0.732,1.464,1.801,1.464,3.203c0,1.404-0.366,2.959-1.099,4.666c-0.365,0.612-0.731,1.281-1.098,2.013
		s-0.795,1.404-1.281,2.013c0,0.123-0.123,0.306-0.365,0.549c0.852,0.246,2.104,0.732,3.751,1.464
		c1.646,0.732,3.14,1.801,4.483,3.202c1.341,1.404,2.164,3.174,2.471,5.307c0.303,2.136-0.458,4.667-2.288,7.594
		c-0.246,0.489-0.521,0.915-0.823,1.281c-0.306,0.366-0.58,0.731-0.823,1.098c-0.612,0.612-1.038,1.098-1.281,1.464
		c-0.366,0.489-0.795,1.098-1.281,1.83l-2.744,3.66c-2.562,3.539-4.483,6.496-5.765,8.875s-1.252,4.058,0.092,5.032
		c0.608,0.366,1.4,0.429,2.379,0.183c0.852-0.243,1.83-0.731,2.928-1.464c1.098-0.731,2.499-1.95,4.209-3.659
		c1.707-1.707,3.294-3.386,4.758-5.033c1.464-1.646,2.805-3.139,4.025-4.482C556.937,90.738,558.218,89.397,559.438,88.177z"/>
	<path d="M566.392,105.378c0.243,0.123,0.608,0.184,1.098,0.184c0.975,0,1.95-0.243,2.928-0.732
		c0.976-0.486,1.891-1.035,2.745-1.646c0.975-0.732,1.95-1.584,2.928-2.562c1.584-1.584,3.688-4.177,6.313-7.777
		c2.622-3.597,5.519-7.714,8.692-12.352c3.171-4.635,6.433-9.576,9.79-14.822c3.354-5.244,6.616-10.368,9.79-15.372
		c3.171-5.001,6.13-9.667,8.875-13.999c2.745-4.329,4.97-7.837,6.679-10.522c1.83-2.439,3.598-4.146,5.308-5.124
		c1.707-0.975,3.354-1.464,4.94-1.464c1.584,0,3.171,0.366,4.758,1.098c1.584,0.732,2.988,1.953,4.209,3.66
		c1.218,1.71,2.195,3.998,2.928,6.862c0.732,2.868,1.098,6.436,1.098,10.705c0,2.808-0.429,6.039-1.28,9.699
		c-0.855,3.66-2.045,7.291-3.568,10.888c-1.527,3.6-3.294,6.985-5.308,10.156c-2.013,3.174-4.18,5.613-6.496,7.32v0.184
		c-1.344,1.221-3.051,1.829-5.123,1.829c-2.809,0-5.216-0.915-7.229-2.745c-2.013-1.83-3.02-3.66-3.02-5.49
		c0-1.098,0.303-1.83,0.915-2.196c0.366-0.243,0.731-0.426,1.098-0.549h0.732h0.731c0.243,0,0.395,0.092,0.458,0.275
		c0.06,0.183,0.243,0.183,0.549,0c0.303-0.183,0.823-0.641,1.556-1.373c0.731-0.732,1.83-1.95,3.294-3.66
		c0.608-0.609,1.738-2.073,3.385-4.392c1.647-2.316,3.354-5.001,5.124-8.052c1.767-3.048,3.322-6.13,4.666-9.241
		c1.341-3.111,2.014-5.824,2.014-8.143c0-1.218-0.246-1.981-0.732-2.288c-0.489-0.303-0.915-0.457-1.281-0.457
		c-0.488,0-1.006,0.246-1.555,0.732c-0.55,0.489-1.099,1.069-1.647,1.738c-0.549,0.672-1.038,1.312-1.464,1.921
		c-0.429,0.612-0.703,1.038-0.823,1.281c-4.758,7.2-9.241,14.153-13.45,20.861c-4.209,6.71-8.632,13.175-13.267,19.398
		c-4.638,6.221-9.79,12.108-15.463,17.658c-5.673,5.553-12.353,10.645-20.038,15.279c0.853,0.732,2.805,1.739,5.855,3.02
		c3.048,1.281,6.862,2.471,11.438,3.568c4.575,1.099,9.728,1.95,15.463,2.562c5.732,0.608,11.68,0.761,17.842,0.457
		c6.159-0.306,12.412-1.252,18.757-2.836c6.342-1.587,12.381-4.149,18.116-7.686c-0.123-0.12-0.246-0.304-0.366-0.55
		c-0.246-0.485-0.366-0.852-0.366-1.098c0-0.975,0.732-1.523,2.196-1.646c1.218,0,2.379,0.64,3.477,1.921
		c1.099,1.281,1.647,2.96,1.647,5.032c0,3.414-1.556,6.251-4.667,8.51c-3.11,2.256-6.802,4.086-11.07,5.489
		c-4.272,1.401-8.724,2.379-13.358,2.928c-4.638,0.549-8.481,0.824-11.529,0.824c-1.952,0-3.691-0.032-5.215-0.092
		c-1.527-0.063-2.899-0.154-4.117-0.274c-1.344-0.123-2.562-0.246-3.66-0.366c-11.592-1.464-20.741-3.417-27.449-5.855
		c-6.71-2.442-11.803-4.912-15.279-7.411c-3.478-2.502-5.704-4.821-6.68-6.954c-0.978-2.133-1.464-3.628-1.464-4.483
		c0-1.584,0.395-2.622,1.189-3.11c0.792-0.486,1.31-0.732,1.556-0.732c0.486,0,0.975,0.366,1.464,1.098
		C566.146,104.829,566.269,105.135,566.392,105.378z"/>
	<path d="M697.779,86.896c0.976-1.098,1.83-1.89,2.562-2.379c0.608-0.365,1.189-0.395,1.738-0.091c0.549,0.306,0.7,1.312,0.457,3.02
		c0,0.488-0.123,1.037-0.365,1.646c-0.246,0.612-0.581,1.344-1.007,2.196c-0.429,0.854-1.13,1.77-2.104,2.744
		c-0.978,1.099-2.259,2.471-3.843,4.118c-1.587,1.646-3.174,3.265-4.758,4.849c-1.587,1.587-3.02,3.02-4.301,4.301
		c-1.28,1.28-2.104,2.104-2.47,2.47c-2.076,1.83-4.209,2.837-6.405,3.02c-2.195,0.184-4.331-0.395-6.404-1.738
		c-1.71-1.098-3.325-2.956-4.85-5.581c-1.526-2.622-1.921-5.824-1.189-9.607c0.243-0.731,0.366-1.218,0.366-1.464
		c-2.808,3.417-5.398,6.222-7.777,8.418c-2.379,2.195-4.515,3.997-6.404,5.398c-1.894,1.403-3.54,2.41-4.941,3.02
		c-1.403,0.611-2.593,1.037-3.568,1.28h-0.183l-0.184,0.184h-0.365h-0.184h-0.183c-0.975,0.123-1.647,0.123-2.013,0
		c-0.486,0-1.099-0.12-1.83-0.366c-0.12,0-0.184-0.061-0.184-0.184h-0.365c-0.976-0.608-1.524-0.914-1.647-0.914
		c-1.341-0.976-2.256-2.134-2.745-3.478c-0.485-1.341-0.731-2.865-0.731-4.574c0.123-0.853,0.274-1.768,0.457-2.745
		c0.184-0.976,0.397-1.95,0.641-2.928c0-0.12,0.031-0.212,0.092-0.274c0.062-0.061,0.092-0.152,0.092-0.274
		c0-0.12,0.031-0.212,0.091-0.275c0.063-0.06,0.092-0.151,0.092-0.274c1.098-3.659,2.745-7.471,4.94-11.437
		c2.196-3.963,4.455-7.714,6.771-11.254c0.608-0.975,1.126-1.95,1.555-2.928c0.427-0.975,0.761-1.767,1.007-2.379V68.23
		c0.12,0,0.183-0.06,0.183-0.183v-0.183v-1.281c0-0.243-0.062-0.426-0.183-0.549c0-0.12-0.031-0.274-0.092-0.458
		c-0.062-0.183-0.031-0.395,0.092-0.64c0-0.609,0.183-1.158,0.549-1.647c0.243-0.366,0.641-0.701,1.189-1.007
		c0.549-0.303,1.433-0.458,2.653-0.458c0.243,0.123,0.486,0.183,0.732,0.183c0.243,0,0.486,0.063,0.731,0.183
		c1.099,0.246,2.225,0.763,3.386,1.556c1.158,0.794,2.196,1.77,3.11,2.928c0.915,1.161,1.524,2.41,1.83,3.751
		c0.304,1.344,0.151,2.685-0.457,4.026c-0.246,0.366-0.458,0.732-0.641,1.098c-0.183,0.366-0.397,0.795-0.641,1.281
		c-0.246,0.366-0.521,0.763-0.823,1.189c-0.306,0.429-0.703,0.946-1.189,1.555c-0.246,0.246-0.612,0.732-1.098,1.464
		c-1.099,1.344-2.104,2.594-3.02,3.751c-0.915,1.161-1.679,2.168-2.288,3.02l-2.562,3.66c-0.246,0.123-0.489,0.429-0.731,0.915
		l-0.184,0.183c-0.123,0.123-0.306,0.43-0.549,0.915c-0.366,0.612-0.703,1.161-1.007,1.647c-0.306,0.488-0.58,0.978-0.823,1.464
		c-0.123,0-0.183,0.062-0.183,0.183c-0.123,0.123-0.184,0.246-0.184,0.366c0,0.123-0.062,0.246-0.183,0.366
		c-0.246,0.854-0.549,1.77-0.915,2.744c-0.366,0.979-0.611,2.014-0.731,3.111c-0.123,0.978,0,1.83,0.365,2.562
		c0.732,0.366,1.95-0.06,3.66-1.28c1.707-1.219,3.751-2.957,6.13-5.216c2.379-2.256,4.878-4.878,7.503-7.868
		c2.622-2.988,5.216-5.947,7.777-8.875s4.909-5.702,7.045-8.327c2.133-2.622,3.872-4.786,5.216-6.496
		c0.243-0.486,0.457-0.884,0.641-1.189c0.183-0.303,0.395-0.578,0.64-0.824v-0.183l0.366-0.366c0.12-0.243,0.549-0.732,1.281-1.464
		c0.731-0.732,1.767-1.341,3.11-1.83c1.342-0.486,2.379-0.549,3.111-0.183c2.928,0.978,4.786,2.288,5.581,3.935
		c0.792,1.647,0.761,3.265-0.092,4.849c-0.122,0-0.183,0.063-0.183,0.183c-0.123,0.123-0.183,0.246-0.183,0.366
		c0,0.123-0.063,0.246-0.184,0.366c-0.245,0.489-0.823,1.436-1.738,2.836c-0.915,1.404-2.593,3.691-5.032,6.862
		c-0.246,0.612-0.58,1.161-1.006,1.647c-0.43,0.489-0.824,1.038-1.189,1.646c-0.489,0.732-0.855,1.222-1.099,1.464
		c-0.246,0.366-0.488,0.704-0.731,1.007c-0.246,0.306-0.489,0.641-0.732,1.007l-2.562,3.477c-2.562,3.54-4.515,6.496-5.856,8.875
		c-1.344,2.379-1.344,4.058,0,5.032c0.609,0.366,1.401,0.429,2.379,0.184c0.853-0.243,1.859-0.732,3.02-1.464
		c1.158-0.732,2.591-1.95,4.301-3.66c1.584-1.707,3.14-3.354,4.666-4.941c1.524-1.584,2.896-3.048,4.117-4.392
		C695.277,89.641,696.559,88.24,697.779,86.896z"/>
	<path d="M720.653,55.055c1.584-0.486,3.048-0.641,4.392-0.458c1.341,0.183,2.471,0.612,3.386,1.281
		c0.914,0.672,1.584,1.464,2.013,2.379c0.426,0.915,0.518,1.802,0.274,2.654c-0.246,0.612-0.703,0.978-1.373,1.098
		c-0.672,0.123-1.129,0.183-1.372,0.183c-0.246,0.732-0.521,2.41-0.823,5.032c-0.306,2.625-0.215,6.253,0.274,10.888
		c0.243,2.685,0.577,5.032,1.007,7.045c0.426,2.013,0.792,3.814,1.098,5.398c0.303,1.587,0.457,3.02,0.457,4.301
		c0,1.28-0.306,2.533-0.915,3.751c-1.71,3.54-4.392,6.711-8.052,9.516c-3.659,2.808-7.565,4.575-11.711,5.307
		c-2.685,0.609-5.004,0.669-6.954,0.184c-1.95-0.489-3.537-1.342-4.758-2.562c-1.218-1.218-2.041-2.653-2.47-4.3
		c-0.427-1.647-0.335-3.323,0.274-5.032c0.365-1.707,1.709-3.66,4.025-5.856c2.319-2.195,5.336-4.146,9.059-5.855
		c3.72-1.707,8.08-2.928,13.084-3.66c5-0.731,10.431-0.485,16.286,0.732c1.584,0.366,2.745,1.098,3.477,2.195
		c0.732,1.099,0.792,1.953,0.184,2.562c-0.366,0.366-0.979,0.429-1.83,0.183c-0.366-0.12-0.732-0.303-1.099-0.549
		c-6.102-0.975-11.5-0.7-16.194,0.823c-4.698,1.527-8.572,3.478-11.62,5.856c-3.051,2.379-5.216,4.697-6.496,6.953
		c-1.281,2.259-1.436,3.568-0.458,3.935c1.83,1.098,3.935,0.731,6.313-1.098c2.379-1.83,4.237-4.513,5.581-8.052
		c0.486-1.341,0.701-2.896,0.641-4.667c-0.062-1.767-0.306-3.688-0.731-5.764c-0.43-2.073-0.887-4.237-1.373-6.496
		c-0.488-2.256-0.854-4.544-1.098-6.863c-1.953,2.442-3.631,4.607-5.032,6.497c-1.404,1.893-2.594,3.508-3.568,4.85
		c-1.221,1.464-2.196,2.808-2.928,4.025c-1.099,1.344-2.014,2.167-2.745,2.471c-0.732,0.306-1.341,0.457-1.83,0.457
		c-0.486,0-0.852-0.243-1.098-0.731l-0.366-0.732c-0.243-0.486-0.243-1.035,0-1.646c0.489-1.219,1.436-2.896,2.836-5.032
		c1.404-2.134,2.96-4.421,4.667-6.863c1.707-2.438,3.477-4.877,5.307-7.319c1.83-2.439,3.414-4.575,4.758-6.405
		c0.366-2.073,0.975-3.78,1.83-5.124c0.852-1.341,1.707-2.439,2.562-3.294C718.518,56.276,719.555,55.544,720.653,55.055z"/>
	<path d="M770.609,86.896c0.853-1.098,1.647-1.89,2.379-2.379c0.609-0.365,1.158-0.395,1.647-0.091
		c0.485,0.306,0.792,1.312,0.915,3.02c0.12,0.488,0.12,1.037,0,1.646c-0.123,0.612-0.366,1.344-0.732,2.196
		c-0.366,0.854-0.978,1.77-1.83,2.744c-0.854,1.099-1.953,2.471-3.294,4.118c-1.344,1.646-2.685,3.265-4.025,4.849
		c-1.344,1.587-2.533,3.02-3.568,4.301c-1.038,1.28-1.738,2.104-2.104,2.47c-1.71,1.83-3.691,2.837-5.947,3.02
		c-2.259,0.184-4.424-0.395-6.496-1.738c-0.853-0.486-1.799-1.218-2.837-2.195c-1.035-0.976-1.95-2.104-2.744-3.386
		c-0.792-1.281-1.465-2.745-2.014-4.392c-0.549-1.647-0.761-3.386-0.641-5.216c0.246-1.341,0.581-2.956,1.007-4.849
		c0.429-1.891,1.069-3.688,1.922-5.398c0.854-2.073,1.829-4.086,2.928-6.039c1.098-1.95,2.133-3.72,3.11-5.307
		c1.099-1.83,2.196-3.597,3.294-5.307c1.95-2.928,4.026-6.099,6.222-9.516c2.196-3.414,3.963-6.222,5.307-8.417
		c-6.222,0-11.285-0.303-15.188-0.915c-3.903-0.609-6.954-1.31-9.15-2.104c-2.195-0.792-3.659-1.584-4.392-2.379
		c-0.731-0.792-0.975-1.372-0.731-1.738c0.488-1.098,1.221-1.524,2.195-1.281c0.489,0.123,0.915,0.429,1.281,0.915
		c0.366,0.489,1.893,0.854,4.574,1.098c2.686,0.246,5.673,0.366,8.967,0.366s6.496-0.06,9.607-0.183
		c3.111-0.12,5.335-0.243,6.68-0.366c-0.979-1.707-1.647-3.262-2.014-4.666c-0.365-1.401,0-3.323,1.099-5.764
		c1.218-2.562,2.562-4.483,4.025-5.765c1.464-1.281,2.865-2.224,4.209-2.836c1.464-0.609,2.988-0.915,4.575-0.915
		c2.315,0.246,4.36,1.647,6.13,4.208c1.767,2.562,2.225,5.37,1.372,8.418h-0.183c-0.123,0.489-0.429,1.344-0.915,2.562
		c-0.246,0.489-0.521,1.038-0.823,1.647c-0.307,0.612-0.704,1.344-1.189,2.196c3.537-0.975,7.137-1.83,10.796-2.562
		c3.66-0.732,6.954-1.218,9.882-1.464c3.294-0.243,5.855-0.029,7.686,0.64c1.83,0.672,3.203,1.556,4.117,2.653
		c0.915,1.098,1.493,2.196,1.739,3.294c0.243,1.098,0.365,1.893,0.365,2.379c-0.122,1.464-0.365,2.685-0.731,3.66
		c-0.366,0.855-0.855,1.587-1.464,2.196c-0.612,0.612-1.404,0.612-2.379,0c-0.732-0.366-1.893-0.915-3.478-1.647
		c-1.586-0.732-3.6-1.401-6.038-2.013c-2.442-0.609-5.278-1.007-8.51-1.189c-3.233-0.183-6.802,0.091-10.705,0.823
		c-0.978,0.246-1.921,0.458-2.836,0.641c-0.915,0.183-1.861,0.397-2.836,0.64c-0.123,0-0.43,0.123-0.915,0.366
		c-2.076,3.174-4.301,6.528-6.68,10.064c-2.379,3.54-4.666,6.954-6.862,10.248c-2.195,3.294-4.209,6.313-6.039,9.058
		c-1.829,2.745-3.233,4.912-4.208,6.496l-2.014,3.66c-2.075,3.54-3.142,6.496-3.202,8.875c-0.062,2.379,0.7,4.058,2.287,5.032
		c0.732,0.366,1.524,0.429,2.379,0.184c0.732-0.243,1.647-0.732,2.745-1.464c1.099-0.732,2.316-1.95,3.66-3.66
		c1.341-1.707,2.653-3.354,3.935-4.941c1.28-1.584,2.407-3.048,3.385-4.392C768.534,89.641,769.632,88.24,770.609,86.896z
		 M775.185,30.9c-1.221,0.123-2.442,1.069-3.66,2.836c-1.221,1.77-1.646,3.751-1.281,5.947c1.099-1.707,1.922-3.079,2.471-4.117
		c0.549-1.035,1.007-1.858,1.373-2.47c0.365-0.609,0.608-1.066,0.731-1.373C774.938,31.42,775.062,31.146,775.185,30.9z"/>
</g>
</svg>
